<svg width="82" height="13" viewBox="0 0 82 13" fill="none" xmlns="http://www.w3.org/2000/svg">
<rect opacity="0.35" x="57.7987" y="0.5" width="21" height="10.3333" rx="2.16667" stroke="#484848"/>
<path opacity="0.4" d="M80.2987 3.6665V7.6665C81.1034 7.32773 81.6267 6.53964 81.6267 5.6665C81.6267 4.79337 81.1034 4.00528 80.2987 3.6665Z" fill="#484848"/>
<rect x="59.2987" y="2" width="18" height="7.33333" rx="1.33333" fill="#484848"/>
<path d="M35.7245 9.5459C37.2348 8.32001 39.4467 8.31993 40.9569 9.5459C41.0327 9.61173 41.0768 9.70467 41.079 9.80273C41.0811 9.90104 41.0408 9.99656 40.9677 10.0654L38.6024 12.3555C38.5332 12.4226 38.4392 12.4609 38.3407 12.4609C38.2421 12.4609 38.1473 12.4228 38.078 12.3555L35.7128 10.0654C35.6397 9.99651 35.5993 9.90104 35.6014 9.80273C35.6037 9.70457 35.6485 9.61171 35.7245 9.5459ZM32.5682 6.49023C35.8221 3.58526 40.8612 3.58526 44.1151 6.49023C44.1886 6.55835 44.2303 6.65197 44.2313 6.75C44.2323 6.84791 44.1928 6.94223 44.121 7.01172L42.7538 8.33789C42.6129 8.47317 42.3846 8.47551 42.2401 8.34375C41.1717 7.41534 39.782 6.90134 38.3407 6.90137C36.9002 6.90194 35.511 7.41581 34.4432 8.34375C34.2987 8.47555 34.0704 8.47327 33.9296 8.33789L32.5634 7.01172C32.4912 6.9423 32.4511 6.84803 32.452 6.75C32.453 6.65201 32.4948 6.55834 32.5682 6.49023ZM29.413 3.44238C34.4036 -1.14763 42.2769 -1.14774 47.2675 3.44238C47.3397 3.51056 47.3801 3.60395 47.3807 3.70117C47.3813 3.79842 47.3418 3.89194 47.2704 3.96094L45.9022 5.28711C45.7612 5.42315 45.5317 5.42399 45.3885 5.29004C43.4872 3.55531 40.9641 2.58806 38.3407 2.58789C35.7168 2.58788 33.1926 3.55494 31.2909 5.29004C31.1479 5.42414 30.9191 5.4232 30.7782 5.28711L29.4091 3.96094C29.3377 3.89189 29.298 3.79839 29.2987 3.70117C29.2994 3.60392 29.3407 3.51053 29.413 3.44238Z" fill="#484848"/>
<path d="M2.36816 7.57617C3.02192 7.57626 3.55164 8.08447 3.55176 8.71191V10.9844C3.55176 11.6119 3.02199 12.121 2.36816 12.1211H1.18359C0.529875 12.1209 0 11.6118 0 10.9844V8.71191C0.00011629 8.08454 0.529947 7.57638 1.18359 7.57617H2.36816ZM7.89355 5.30273C8.54736 5.30285 9.07715 5.81193 9.07715 6.43945V10.9844C9.07715 11.6119 8.54736 12.121 7.89355 12.1211H6.70898C6.05524 12.1209 5.52539 11.6119 5.52539 10.9844V6.43945C5.52539 5.81197 6.05524 5.30292 6.70898 5.30273H7.89355ZM13.4189 2.65137C14.0727 2.65151 14.6025 3.16058 14.6025 3.78809V10.9844C14.6025 11.6119 14.0727 12.1209 13.4189 12.1211H12.2344C11.5806 12.1209 11.0508 11.6119 11.0508 10.9844V3.78809C11.0508 3.16058 11.5806 2.65152 12.2344 2.65137H13.4189ZM18.9443 0C19.5981 0.000174211 20.1279 0.50923 20.1279 1.13672V10.9844C20.1279 11.6119 19.5981 12.1209 18.9443 12.1211H17.7598C17.106 12.121 16.5762 11.6119 16.5762 10.9844V1.13672C16.5762 0.509197 17.106 0.000121609 17.7598 0H18.9443Z" fill="#484848"/>
</svg>
