<svg width="26" height="26" viewBox="0 0 26 26" fill="none" xmlns="http://www.w3.org/2000/svg">
<path d="M5.43822 15.8565C4.70162 14.8995 4.33331 14.421 4.33331 13.0002C4.33331 11.5794 4.70162 11.101 5.43822 10.144C6.90902 8.23318 9.37568 6.06689 13 6.06689C16.6243 6.06689 19.0909 8.23318 20.5617 10.144C21.2983 11.101 21.6666 11.5794 21.6666 13.0002C21.6666 14.421 21.2983 14.8995 20.5617 15.8565C19.0909 17.7673 16.6243 19.9336 13 19.9336C9.37568 19.9336 6.90902 17.7673 5.43822 15.8565Z" stroke="#1C274C" stroke-width="1.5"/>
<path d="M15.6 12.9999C15.6 14.4358 14.436 15.5999 13 15.5999C11.5641 15.5999 10.4 14.4358 10.4 12.9999C10.4 11.564 11.5641 10.3999 13 10.3999C14.436 10.3999 15.6 11.564 15.6 12.9999Z" stroke="#1C274C" stroke-width="1.5"/>
</svg>
