<svg width="34" height="34" viewBox="0 0 34 34" fill="none" xmlns="http://www.w3.org/2000/svg">
<path fill-rule="evenodd" clip-rule="evenodd" d="M23.1046 6.71654C21.6313 6.51846 19.6953 6.51665 17 6.51665C14.3047 6.51665 12.3687 6.51846 10.8954 6.71654C9.44651 6.91133 8.57303 7.28181 7.92742 7.92742C7.28181 8.57303 6.91133 9.44651 6.71654 10.8954C6.51846 12.3687 6.51665 14.3047 6.51665 17C6.51665 19.6953 6.51846 21.6313 6.71654 23.1046C6.91133 24.5535 7.28181 25.4269 7.92742 26.0725C8.4574 26.6025 9.14093 26.9471 10.1702 27.1613L27.1613 10.1702C26.9471 9.14093 26.6025 8.4574 26.0725 7.92742C25.4269 7.28181 24.5535 6.91133 23.1046 6.71654ZM27.4122 12.3234L20.4692 19.2665L26.5974 25.3947C26.9313 24.8289 27.1491 24.1035 27.2834 23.1046C27.4815 21.6313 27.4833 19.6953 27.4833 17C27.4833 15.0976 27.4824 13.5736 27.4122 12.3234ZM25.3955 26.5969L19.2672 20.4685L12.3234 27.4122C13.5736 27.4824 15.0976 27.4833 17 27.4833C19.6953 27.4833 21.6313 27.4815 23.1046 27.2834C24.104 27.1491 24.8296 26.9311 25.3955 26.5969ZM23.3311 5.0317C24.9685 5.25183 26.2605 5.71122 27.2746 6.72534C28.2887 7.73946 28.7481 9.03148 28.9683 10.6688C29.1833 12.2685 29.1833 14.3188 29.1833 16.935V17.065C29.1833 19.6812 29.1833 21.7314 28.9683 23.3311C28.7481 24.9685 28.2887 26.2605 27.2746 27.2746C26.2605 28.2887 24.9685 28.7481 23.3311 28.9683C21.7314 29.1833 19.6812 29.1833 17.065 29.1833H16.935C14.3188 29.1833 12.2685 29.1833 10.6689 28.9683C9.03148 28.7481 7.73946 28.2887 6.72534 27.2746C5.71122 26.2605 5.25184 24.9685 5.0317 23.3311C4.81662 21.7314 4.81664 19.6812 4.81665 17.065V16.935C4.81664 14.3188 4.81662 12.2685 5.0317 10.6689C5.25183 9.03148 5.71122 7.73946 6.72534 6.72534C7.73946 5.71122 9.03148 5.25184 10.6688 5.0317C12.2685 4.81662 14.3188 4.81664 16.935 4.81665H17.065C19.6812 4.81664 21.7314 4.81662 23.3311 5.0317ZM8.78332 13.3248C8.78332 10.7601 10.9984 8.7832 13.6 8.7832C16.2016 8.7832 18.4167 10.7601 18.4167 13.3248C18.4167 15.6213 17.0047 18.3316 14.6594 19.3339C13.9856 19.6219 13.2144 19.6219 12.5406 19.3339C10.1952 18.3316 8.78332 15.6213 8.78332 13.3248ZM13.6 10.4832C11.8201 10.4832 10.4833 11.8119 10.4833 13.3248C10.4833 15.0741 11.6034 17.0847 13.2086 17.7707C13.4558 17.8763 13.7442 17.8763 13.9913 17.7707C15.5965 17.0847 16.7167 15.0741 16.7167 13.3248C16.7167 11.8119 15.3798 10.4832 13.6 10.4832Z" fill="#333333"/>
<path d="M14.7333 13.6C14.7333 14.2259 14.2259 14.7333 13.6 14.7333C12.9741 14.7333 12.4667 14.2259 12.4667 13.6C12.4667 12.9741 12.9741 12.4667 13.6 12.4667C14.2259 12.4667 14.7333 12.9741 14.7333 13.6Z" fill="#333333"/>
</svg>
