<svg width="34" height="34" viewBox="0 0 34 34" fill="none" xmlns="http://www.w3.org/2000/svg">
<path d="M5.66669 17.2311C5.66669 14.6376 5.66669 13.3408 6.25511 12.2658C6.84354 11.1908 7.91856 10.5236 10.0686 9.18923L12.3353 7.78247C14.608 6.37195 15.7444 5.66669 17 5.66669C18.2557 5.66669 19.392 6.37195 21.6648 7.78247L23.9314 9.18923C26.0815 10.5236 27.1565 11.1908 27.7449 12.2658C28.3334 13.3408 28.3334 14.6376 28.3334 17.2311V18.955C28.3334 23.376 28.3334 25.5865 27.0056 26.9599C25.6778 28.3334 23.5408 28.3334 19.2667 28.3334H14.7334C10.4593 28.3334 8.32225 28.3334 6.99447 26.9599C5.66669 25.5865 5.66669 23.376 5.66669 18.955V17.2311Z" stroke="#333333" stroke-width="1.5"/>
<path d="M13.6 21.5333C14.5637 22.2477 15.7358 22.6667 17 22.6667C18.2641 22.6667 19.4362 22.2477 20.4 21.5333" stroke="#333333" stroke-width="1.5" stroke-linecap="round"/>
</svg>
