<svg width="34" height="34" viewBox="0 0 34 34" fill="none" xmlns="http://www.w3.org/2000/svg">
<path d="M5.66669 17C5.66669 12.7259 5.66669 10.5889 6.99447 9.26113C8.32225 7.93335 10.4593 7.93335 14.7334 7.93335H19.2667C23.5408 7.93335 25.6778 7.93335 27.0056 9.26113C28.3334 10.5889 28.3334 12.7259 28.3334 17V19.2667C28.3334 23.5408 28.3334 25.6778 27.0056 27.0056C25.6778 28.3333 23.5408 28.3333 19.2667 28.3333H14.7334C10.4593 28.3333 8.32225 28.3333 6.99447 27.0056C5.66669 25.6778 5.66669 23.5408 5.66669 19.2667V17Z" stroke="#333333" stroke-width="1.5"/>
<path d="M11.3333 7.93334V6.23334" stroke="#333333" stroke-width="1.5" stroke-linecap="round"/>
<path d="M22.6667 7.93334V6.23334" stroke="#333333" stroke-width="1.5" stroke-linecap="round"/>
<path d="M6.23334 13.6H27.7667" stroke="#333333" stroke-width="1.5" stroke-linecap="round"/>
<path d="M23.8 22.6667C23.8 23.2926 23.2926 23.8 22.6667 23.8C22.0407 23.8 21.5333 23.2926 21.5333 22.6667C21.5333 22.0407 22.0407 21.5333 22.6667 21.5333C23.2926 21.5333 23.8 22.0407 23.8 22.6667Z" fill="#333333"/>
<path d="M23.8 18.1333C23.8 18.7593 23.2926 19.2667 22.6667 19.2667C22.0407 19.2667 21.5333 18.7593 21.5333 18.1333C21.5333 17.5074 22.0407 17 22.6667 17C23.2926 17 23.8 17.5074 23.8 18.1333Z" fill="#333333"/>
<path d="M18.1333 22.6667C18.1333 23.2926 17.6259 23.8 17 23.8C16.374 23.8 15.8666 23.2926 15.8666 22.6667C15.8666 22.0407 16.374 21.5333 17 21.5333C17.6259 21.5333 18.1333 22.0407 18.1333 22.6667Z" fill="#333333"/>
<path d="M18.1333 18.1333C18.1333 18.7593 17.6259 19.2667 17 19.2667C16.374 19.2667 15.8666 18.7593 15.8666 18.1333C15.8666 17.5074 16.374 17 17 17C17.6259 17 18.1333 17.5074 18.1333 18.1333Z" fill="#333333"/>
<path d="M12.4667 22.6667C12.4667 23.2926 11.9593 23.8 11.3333 23.8C10.7074 23.8 10.2 23.2926 10.2 22.6667C10.2 22.0407 10.7074 21.5333 11.3333 21.5333C11.9593 21.5333 12.4667 22.0407 12.4667 22.6667Z" fill="#333333"/>
<path d="M12.4667 18.1333C12.4667 18.7593 11.9593 19.2667 11.3333 19.2667C10.7074 19.2667 10.2 18.7593 10.2 18.1333C10.2 17.5074 10.7074 17 11.3333 17C11.9593 17 12.4667 17.5074 12.4667 18.1333Z" fill="#333333"/>
</svg>
