<svg width="26" height="26" viewBox="0 0 26 26" fill="none" xmlns="http://www.w3.org/2000/svg">
<path d="M4.33331 13C4.33331 9.73161 4.33331 8.09741 5.34868 7.08204C6.36404 6.06668 7.99824 6.06668 11.2666 6.06668H14.7333C18.0017 6.06668 19.6359 6.06668 20.6513 7.08204C21.6666 8.09741 21.6666 9.73161 21.6666 13V14.7333C21.6666 18.0018 21.6666 19.636 20.6513 20.6513C19.6359 21.6667 18.0017 21.6667 14.7333 21.6667H11.2666C7.99824 21.6667 6.36404 21.6667 5.34868 20.6513C4.33331 19.636 4.33331 18.0018 4.33331 14.7333V13Z" stroke="#B8BCC6" stroke-width="1.5"/>
<path d="M8.66669 6.06666V4.76666" stroke="#B8BCC6" stroke-width="1.5" stroke-linecap="round"/>
<path d="M17.3333 6.06666V4.76666" stroke="#B8BCC6" stroke-width="1.5" stroke-linecap="round"/>
<path d="M4.76666 10.4H21.2333" stroke="#B8BCC6" stroke-width="1.5" stroke-linecap="round"/>
<path d="M18.2 17.3333C18.2 17.812 17.812 18.2 17.3333 18.2C16.8547 18.2 16.4667 17.812 16.4667 17.3333C16.4667 16.8547 16.8547 16.4667 17.3333 16.4667C17.812 16.4667 18.2 16.8547 18.2 17.3333Z" fill="#B8BCC6"/>
<path d="M18.2 13.8667C18.2 14.3453 17.812 14.7333 17.3333 14.7333C16.8547 14.7333 16.4667 14.3453 16.4667 13.8667C16.4667 13.388 16.8547 13 17.3333 13C17.812 13 18.2 13.388 18.2 13.8667Z" fill="#B8BCC6"/>
<path d="M13.8667 17.3333C13.8667 17.812 13.4787 18.2 13 18.2C12.5214 18.2 12.1334 17.812 12.1334 17.3333C12.1334 16.8547 12.5214 16.4667 13 16.4667C13.4787 16.4667 13.8667 16.8547 13.8667 17.3333Z" fill="#B8BCC6"/>
<path d="M13.8667 13.8667C13.8667 14.3453 13.4787 14.7333 13 14.7333C12.5214 14.7333 12.1334 14.3453 12.1334 13.8667C12.1334 13.388 12.5214 13 13 13C13.4787 13 13.8667 13.388 13.8667 13.8667Z" fill="#B8BCC6"/>
<path d="M9.53332 17.3333C9.53332 17.812 9.1453 18.2 8.66665 18.2C8.18801 18.2 7.79999 17.812 7.79999 17.3333C7.79999 16.8547 8.18801 16.4667 8.66665 16.4667C9.1453 16.4667 9.53332 16.8547 9.53332 17.3333Z" fill="#B8BCC6"/>
<path d="M9.53332 13.8667C9.53332 14.3453 9.1453 14.7333 8.66665 14.7333C8.18801 14.7333 7.79999 14.3453 7.79999 13.8667C7.79999 13.388 8.18801 13 8.66665 13C9.1453 13 9.53332 13.388 9.53332 13.8667Z" fill="#B8BCC6"/>
</svg>
