<svg width="20" height="20" viewBox="0 0 20 20" fill="none" xmlns="http://www.w3.org/2000/svg">
<g clip-path="url(#clip0_9_239)">
<path d="M13.4794 18.2507C13.3836 18.1904 13.0852 18.1138 13.0031 18.0509L11.3196 19.1568L9.95085 17.7881L11.1279 15.9129C11.0841 15.8335 11.0924 15.8199 11.054 15.735L8.88592 15.349L8.89414 13.2384L10.4764 12.9647L9.688 12.1954C9.03101 12.732 8.2262 13.0496 7.36664 13.0496H7.3639H7.36117C6.54809 13.0496 5.78714 12.7649 5.15199 12.2831L4.34998 13.0496H2.78142C2.05873 13.0496 1.49208 13.2959 1.05135 13.8078C-0.237984 15.297 -0.0217802 18.5053 0.07956 19.488H13.7148L13.4794 18.2507ZM4.10092 9.08025C4.20489 9.97539 4.57998 10.7719 5.12747 11.3551C5.24244 11.4783 5.36289 11.5905 5.49149 11.6918C5.65574 11.8231 5.8282 11.9354 6.01161 12.0312C6.42496 12.2447 6.87943 12.3679 7.3639 12.3679C7.84838 12.3679 8.30285 12.2447 8.7162 12.0312C8.89961 11.9354 9.07207 11.8231 9.23632 11.6918C9.36498 11.5878 9.48816 11.4755 9.60314 11.3523C10.1479 10.7693 10.5229 9.98087 10.6269 9.0912C10.6378 9.0912 10.6461 9.09393 10.6571 9.09393C11.2264 9.09393 11.6891 8.56287 11.6891 7.90862C11.6891 7.51168 11.5193 7.16403 11.2593 6.94777H3.64377C3.38371 7.16403 3.21399 7.51168 3.21399 7.90862C3.21399 8.51086 3.59997 9.00086 4.10092 9.08025ZM20 14.7331V13.8215L18.103 13.4793C18.0182 13.1262 17.8785 12.7977 17.6951 12.4966L18.7983 10.9198L18.1522 10.2738L16.57 11.3742C16.2689 11.1908 15.9377 11.0513 15.5873 10.9691L15.2506 9.07483H14.3391L13.9969 10.9719C13.6438 11.0567 13.3153 11.1964 13.0142 11.3798L11.4374 10.2766L10.7914 10.9226L11.8918 12.5049C11.7084 12.806 11.5688 13.1372 11.4867 13.4876L9.59235 13.8243V14.7358L11.4894 15.078C11.5743 15.4311 11.7139 15.7596 11.8972 16.0608L10.7914 17.6375L11.4374 18.2836L13.0196 17.1831C13.3207 17.3665 13.652 17.5061 14.0023 17.5882L14.339 19.4826H15.2505L15.5927 17.5855C15.9459 17.5007 16.2743 17.361 16.5755 17.1776L18.1522 18.2808L18.7983 17.6348L17.6978 16.0525C17.8813 15.7514 18.0208 15.4202 18.103 15.0698L20 14.7331ZM14.7934 15.6857C14.016 15.6857 13.3863 15.0561 13.3863 14.2787C13.3863 13.5012 14.016 12.8716 14.7934 12.8716C15.5708 12.8716 16.2004 13.5012 16.2004 14.2787C16.2004 15.0561 15.5708 15.6857 14.7934 15.6857ZM5.91859 1.86979C4.77981 2.45013 3.88198 3.61081 3.54254 4.73865L3.46589 4.97954H2.8417V6.34827H3.52053H4.48417H4.88925H10.1671H10.5612H12.0613V6.28257V4.97954H11.4482L11.3715 4.73865C11.0321 3.61081 10.1342 2.46108 8.99542 1.88074V4.45395V4.81529C8.99542 4.83719 8.99542 4.84814 8.99542 4.85909C8.98447 4.97954 8.96257 5.08904 8.90782 5.19854C8.76542 5.47228 8.48078 5.66938 8.15229 5.66938H7.97709H6.77262C6.46597 5.66938 6.19222 5.50513 6.04993 5.26424C5.98423 5.16569 5.95138 5.05619 5.92948 4.93574C5.91853 4.89194 5.91853 4.85909 5.91853 4.81529V4.5087L5.91859 1.86979ZM6.77267 5.30804H8.14139C8.33849 5.30804 8.50274 5.19854 8.59034 5.03429C8.63414 4.95764 8.65598 4.88099 8.65598 4.79339V4.69485V4.2897V1.70555V1.33325V1.1909C8.65598 1.10331 8.63413 1.02666 8.61218 0.950009C8.51363 0.698163 8.26184 0.512016 7.97709 0.512016H6.77262C6.50982 0.512016 6.29083 0.709113 6.26893 0.960959C6.26893 0.982858 6.25798 1.00476 6.25798 1.02666V1.33325V1.70555V4.3335V4.74959V4.79339C6.25798 4.90289 6.29088 5.00144 6.34563 5.08904C6.44418 5.22044 6.59747 5.30804 6.77267 5.30804Z" fill="#84C93F"/>
</g>
<defs>
<clipPath id="clip0_9_239">
<rect width="20" height="20" fill="white"/>
</clipPath>
</defs>
</svg>
