<svg width="40" height="40" viewBox="0 0 40 40" fill="none" xmlns="http://www.w3.org/2000/svg">
<rect width="40" height="40" rx="14" fill="#FDFFFD" fill-opacity="0.5"/>
<path d="M18.1064 26L18.5106 25.9477L18.7021 25.9128L18.8936 25.8779C18.1702 22.6163 16.0426 21.064 14.0638 20.314L30 20.314L30 20.157L30 19.8256L30 19.6686L13.9787 19.6686C16.0426 18.936 18.2766 17.3663 18.9149 14.1047L18.5106 14.0523L18.2979 14.0174L18.1064 14C17.1489 19.0058 12.234 19.6163 10.5957 19.6686C10.234 19.6512 10.0213 19.6686 10 19.6686L10.0213 19.8256L10.0213 19.9128L10 20.3314C10 20.3314 10.1277 20.3314 10.3191 20.3314L10.8511 20.3314C12.6809 20.4186 17.0426 21.1337 18.1064 26Z" fill="#667394"/>
</svg>
