<svg width="34" height="34" viewBox="0 0 34 34" fill="none" xmlns="http://www.w3.org/2000/svg">
<path fill-rule="evenodd" clip-rule="evenodd" d="M13.6 4.81665C10.6269 4.81665 8.21665 7.22685 8.21665 10.2C8.21665 13.1731 10.6269 15.5833 13.6 15.5833C16.5731 15.5833 18.9833 13.1731 18.9833 10.2C18.9833 7.22685 16.5731 4.81665 13.6 4.81665ZM9.91665 10.2C9.91665 8.16573 11.5657 6.51665 13.6 6.51665C15.6342 6.51665 17.2833 8.16573 17.2833 10.2C17.2833 12.2342 15.6342 13.8833 13.6 13.8833C11.5657 13.8833 9.91665 12.2342 9.91665 10.2Z" fill="#333333"/>
<path d="M20.4 5.94998C19.9305 5.94998 19.55 6.33054 19.55 6.79998C19.55 7.26943 19.9305 7.64998 20.4 7.64998C21.8083 7.64998 22.95 8.79166 22.95 10.2C22.95 11.6083 21.8083 12.75 20.4 12.75C19.9305 12.75 19.55 13.1305 19.55 13.6C19.55 14.0694 19.9305 14.45 20.4 14.45C22.7472 14.45 24.65 12.5472 24.65 10.2C24.65 7.85277 22.7472 5.94998 20.4 5.94998Z" fill="#333333"/>
<path fill-rule="evenodd" clip-rule="evenodd" d="M7.56855 18.7231C9.1545 17.8168 11.2887 17.2833 13.6 17.2833C15.9112 17.2833 18.0455 17.8168 19.6314 18.7231C21.1933 19.6156 22.3833 20.9781 22.3833 22.6667C22.3833 24.3552 21.1933 25.7177 19.6314 26.6102C18.0455 27.5165 15.9112 28.05 13.6 28.05C11.2887 28.05 9.1545 27.5165 7.56855 26.6102C6.00665 25.7177 4.81665 24.3552 4.81665 22.6667C4.81665 20.9781 6.00665 19.6156 7.56855 18.7231ZM8.41199 20.1991C7.10259 20.9473 6.51665 21.8515 6.51665 22.6667C6.51665 23.4818 7.10259 24.386 8.41199 25.1342C9.69734 25.8687 11.5298 26.35 13.6 26.35C15.6702 26.35 17.5026 25.8687 18.788 25.1342C20.0974 24.386 20.6833 23.4818 20.6833 22.6667C20.6833 21.8515 20.0974 20.9473 18.788 20.1991C17.5026 19.4646 15.6702 18.9833 13.6 18.9833C11.5298 18.9833 9.69734 19.4646 8.41199 20.1991Z" fill="#333333"/>
<path d="M23.9821 18.4364C23.5235 18.3358 23.0703 18.626 22.9697 19.0846C22.8692 19.5431 23.1594 19.9964 23.6179 20.0969C24.5159 20.2938 25.2336 20.6321 25.7072 21.0197C26.1815 21.4078 26.35 21.7868 26.35 22.1C26.35 22.3841 26.2133 22.7177 25.8365 23.0677C25.4569 23.4203 24.8738 23.7461 24.1216 23.9726C23.6721 24.1079 23.4174 24.582 23.5527 25.0315C23.6881 25.4811 24.1622 25.7357 24.6117 25.6004C25.544 25.3197 26.3775 24.8855 26.9935 24.3133C27.6122 23.7385 28.05 22.9824 28.05 22.1C28.05 21.1199 27.5125 20.3003 26.7838 19.704C26.0545 19.1072 25.0722 18.6754 23.9821 18.4364Z" fill="#333333"/>
</svg>
