<svg width="90" height="90" viewBox="0 0 90 90" fill="none" xmlns="http://www.w3.org/2000/svg">
<rect width="90" height="90" rx="45" fill="#EFF8DD"/>
<path fill-rule="evenodd" clip-rule="evenodd" d="M69.5 42.0556C69.5 55.065 54.1875 71.5 45 71.5C35.8125 71.5 20.5 55.065 20.5 42.0556C20.5 29.0462 31.469 18.5 45 18.5C58.5311 18.5 69.5 29.0462 69.5 42.0556ZM58.6111 42.35C58.6111 49.6677 52.5171 55.6 45 55.6C37.4828 55.6 31.3889 49.6677 31.3889 42.35C31.3889 35.0322 37.4828 29.1 45 29.1C52.5171 29.1 58.6111 35.0322 58.6111 42.35ZM47.0417 37.05C47.0417 35.9523 46.1275 35.0625 45 35.0625C43.8725 35.0625 42.9583 35.9523 42.9583 37.05V40.3625H39.5556C38.428 40.3625 37.5139 41.2524 37.5139 42.35C37.5139 43.4476 38.428 44.3375 39.5556 44.3375H42.9583V47.65C42.9583 48.7476 43.8725 49.6375 45 49.6375C46.1275 49.6375 47.0417 48.7476 47.0417 47.65V44.3375H50.4444C51.572 44.3375 52.4861 43.4476 52.4861 42.35C52.4861 41.2524 51.572 40.3625 50.4444 40.3625H47.0417V37.05Z" fill="url(#paint0_linear_181_186)"/>
<defs>
<linearGradient id="paint0_linear_181_186" x1="45" y1="18.5" x2="45" y2="71.5" gradientUnits="userSpaceOnUse">
<stop stop-color="#84C93F"/>
<stop offset="1" stop-color="#36AA3C"/>
</linearGradient>
</defs>
</svg>
